<svg width="630" height="541" viewBox="0 0 630 541" fill="none" xmlns="http://www.w3.org/2000/svg">
<path d="M630 332.417L286.47 235L0 332.417L286.47 445L630 332.417Z" fill="#232323"/>
<path d="M630 416.5V332.5L286.5 438.5L0 332.5V416.5L286.5 529L630 416.5Z" fill="#1A1A1A"/>
<ellipse cx="192.846" cy="19.8798" rx="192.846" ry="19.8798" transform="matrix(-1 0 0 1 472.938 326.399)" fill="#1A1A1A"/>
<rect width="346.845" height="348.591" rx="23" transform="matrix(-1 0 0 1 450.74 0)" fill="url(#paint0_linear_163_237)"/>
<g filter="url(#filter0_d_163_237)">
<circle cx="13.5" cy="13.5" r="13.5" transform="matrix(-1 0 0 1 440.74 11)" fill="#35393C"/>
</g>
<g filter="url(#filter1_d_163_237)">
<circle cx="13.5" cy="13.5" r="13.5" transform="matrix(-1 0 0 1 140 11)" fill="#35393C"/>
</g>
<g filter="url(#filter2_d_163_237)">
<circle cx="13.5" cy="13.5" r="13.5" transform="matrix(-1 0 0 1 440 312)" fill="#35393C"/>
</g>
<g filter="url(#filter3_d_163_237)">
<circle cx="13.5" cy="13.5" r="13.5" transform="matrix(-1 0 0 1 140 312)" fill="#35393C"/>
</g>
<path d="M156.99 174.295C156.99 240.728 210.861 294.585 277.317 294.585C343.773 294.585 397.644 240.728 397.644 174.295C397.644 107.863 343.773 54.0061 277.317 54.0061C210.861 54.0061 156.99 107.863 156.99 174.295Z" fill="#404040" stroke="#494949" stroke-width="10"/>
<ellipse cx="117.002" cy="96.1629" rx="117.002" ry="96.1629" transform="matrix(-1 0 0 1 393.395 98.9368)" fill="#454545"/>
<mask id="mask0_163_237" style="mask-type:alpha" maskUnits="userSpaceOnUse" x="151" y="49" width="252" height="251">
<path d="M156.99 174.295C156.99 240.728 210.861 294.585 277.317 294.585C343.773 294.585 397.644 240.728 397.644 174.295C397.644 107.863 343.773 54.0061 277.317 54.0061C210.861 54.0061 156.99 107.863 156.99 174.295Z" fill="#404040" stroke="#494949" stroke-width="10"/>
</mask>
<g mask="url(#mask0_163_237)">
<g filter="url(#filter4_i_163_237)">
<rect width="70.2939" height="15.7189" rx="4" transform="matrix(-1 0 0 1 326.8 272.77)" fill="#3A3D3F"/>
</g>
<g filter="url(#filter5_i_163_237)">
<rect width="70.2939" height="15.7189" rx="4" transform="matrix(-1 0 0 1 326.8 257.051)" fill="#3A3D3F"/>
</g>
<g filter="url(#filter6_i_163_237)">
<rect width="70.2939" height="15.7189" rx="4" transform="matrix(-1 0 0 1 327.725 241.332)" fill="#3A3D3F"/>
</g>
<g filter="url(#filter7_i_163_237)">
<rect width="70.2939" height="15.7189" rx="4" transform="matrix(-1 0 0 1 328.65 225.613)" fill="#3A3D3F"/>
</g>
<g filter="url(#filter8_i_163_237)">
<rect width="70.2939" height="15.7189" rx="4" transform="matrix(-1 0 0 1 331.425 209.894)" fill="#3A3D3F"/>
</g>
<rect width="70.2939" height="15.7189" rx="4" transform="matrix(-1 0 0 1 330.5 194.175)" fill="#3A3D3F"/>
<g filter="url(#filter9_i_163_237)">
<rect width="70.2939" height="15.7189" rx="4" transform="matrix(-1 0 0 1 242.633 254.277)" fill="#373A3C"/>
</g>
<g filter="url(#filter10_i_163_237)">
<rect width="70.2939" height="15.7189" rx="4" transform="matrix(-1 0 0 1 241.708 238.558)" fill="#373A3C"/>
</g>
<g filter="url(#filter11_i_163_237)">
<rect width="70.2939" height="15.7189" rx="4" transform="matrix(-1 0 0 1 242.633 222.839)" fill="#373A3C"/>
</g>
<g filter="url(#filter12_i_163_237)">
<rect width="70.2939" height="15.7189" rx="4" transform="matrix(-1 0 0 1 240.783 207.12)" fill="#373A3C"/>
</g>
<g filter="url(#filter13_i_163_237)">
<rect width="70.2939" height="15.7189" rx="4" transform="matrix(-1 0 0 1 242.633 191.401)" fill="#373A3C"/>
</g>
<rect width="70.2939" height="15.7189" rx="4" transform="matrix(-1 0 0 1 238.933 175.682)" fill="#373A3C"/>
<rect width="69.369" height="15.7189" rx="4" transform="matrix(-1 0 0 1 392.47 205.271)" fill="#3C4143"/>
<g filter="url(#filter14_i_163_237)">
<rect width="70.2939" height="15.7189" rx="4" transform="matrix(-1 0 0 1 385.995 220.99)" fill="#3C4143"/>
</g>
<g filter="url(#filter15_i_163_237)">
<rect width="70.2939" height="15.7189" rx="4" transform="matrix(-1 0 0 1 385.995 236.709)" fill="#3C4143"/>
</g>
<g filter="url(#filter16_i_163_237)">
<rect width="70.2939" height="15.7189" rx="4" transform="matrix(-1 0 0 1 389.695 252.428)" fill="#3C4143"/>
</g>
<g filter="url(#filter17_i_163_237)">
<rect width="70.2939" height="15.7189" rx="4" transform="matrix(-1 0 0 1 385.995 268.147)" fill="#3C4143"/>
</g>
<g filter="url(#filter18_i_163_237)">
<rect width="70.2939" height="15.7189" rx="4" transform="matrix(-1 0 0 1 287.954 277.393)" fill="#3C4143"/>
</g>
<g filter="url(#filter19_i_163_237)">
<rect width="70.2939" height="15.7189" rx="4" transform="matrix(-1 0 0 1 287.954 261.674)" fill="#3C4143"/>
</g>
<rect width="70.2939" height="15.7189" rx="4" transform="matrix(-1 0 0 1 289.804 245.955)" fill="#3C4143"/>
</g>
<path d="M156.99 171.984C156.99 237.052 210.773 289.961 277.317 289.961C343.861 289.961 397.644 237.052 397.644 171.984C397.644 106.915 343.861 54.0061 277.317 54.0061C210.773 54.0061 156.99 106.915 156.99 171.984Z" stroke="#333333" stroke-width="10"/>
<path d="M156.99 174.295C156.99 240.728 210.861 294.585 277.317 294.585C343.773 294.585 397.644 240.728 397.644 174.295C397.644 107.863 343.773 54.0061 277.317 54.0061C210.861 54.0061 156.99 107.863 156.99 174.295Z" stroke="#4A4A4A" stroke-width="10"/>
<mask id="mask1_163_237" style="mask-type:alpha" maskUnits="userSpaceOnUse" x="437" y="40" width="193" height="274">
<path d="M548.781 50.8555L548.781 303.283" stroke="url(#paint1_linear_163_237)" stroke-width="20" stroke-linecap="round"/>
<path d="M620 180.306L447.965 179.386" stroke="url(#paint2_linear_163_237)" stroke-width="20" stroke-linecap="round"/>
<path d="M479.412 81.3687L597.802 260.75" stroke="url(#paint3_linear_163_237)" stroke-width="20" stroke-linecap="round"/>
<path d="M599.652 98.937L488.661 274.619" stroke="url(#paint4_linear_163_237)" stroke-width="20" stroke-linecap="round"/>
</mask>
<g mask="url(#mask1_163_237)">
<rect width="138.738" height="270.921" transform="matrix(-1 0 0 1 629.249 42.5337)" fill="url(#paint5_linear_163_237)"/>
</g>
<path d="M433.166 57.3279H410.968V294.037H433.166V57.3279Z" fill="#35393C"/>
<path d="M449.815 101.711C449.815 99.6681 448.158 98.0122 446.115 98.0122H425.767C423.723 98.0122 422.067 99.6681 422.067 101.711V241.332C422.067 243.375 423.723 245.031 425.767 245.031H446.115C448.158 245.031 449.815 243.375 449.815 241.332V101.711Z" fill="#35393C"/>
<rect width="34.222" height="34.2118" rx="11" transform="matrix(-1 0 0 1 438.716 266.297)" fill="#404040"/>
<rect width="34.222" height="34.2118" rx="11" transform="matrix(-1 0 0 1 438.716 47.1569)" fill="#404040"/>
<rect width="41.6214" height="245.955" transform="matrix(-1 0 0 1 539.532 51.78)" fill="#25282B"/>
<ellipse cx="73.5311" cy="122.978" rx="73.5311" ry="122.978" transform="matrix(-1 0 0 1 612.601 51.78)" fill="#25282B"/>
<ellipse cx="73.5311" cy="122.978" rx="73.5311" ry="122.978" transform="matrix(-1 0 0 1 576.529 51.78)" fill="#4A4A4A"/>
<g filter="url(#filter20_ii_163_237)">
<ellipse cx="57.345" cy="95.7006" rx="57.345" ry="95.7006" transform="matrix(-1 0 0 1 556.18 79.5193)" fill="#454545"/>
</g>
<rect width="40.6965" height="24.9654" rx="12.4827" transform="matrix(-1 0 0 1 523.808 162.737)" fill="#35393C"/>
<path d="M490.511 81.3687L490.511 269.071" stroke="url(#paint6_linear_163_237)" stroke-width="20" stroke-linecap="round"/>
<defs>
<filter id="filter0_d_163_237" x="413.74" y="11" width="27" height="29" filterUnits="userSpaceOnUse" color-interpolation-filters="sRGB">
<feFlood flood-opacity="0" result="BackgroundImageFix"/>
<feColorMatrix in="SourceAlpha" type="matrix" values="0 0 0 0 0 0 0 0 0 0 0 0 0 0 0 0 0 0 127 0" result="hardAlpha"/>
<feOffset dy="2"/>
<feComposite in2="hardAlpha" operator="out"/>
<feColorMatrix type="matrix" values="0 0 0 0 0 0 0 0 0 0 0 0 0 0 0 0 0 0 0.25 0"/>
<feBlend mode="normal" in2="BackgroundImageFix" result="effect1_dropShadow_163_237"/>
<feBlend mode="normal" in="SourceGraphic" in2="effect1_dropShadow_163_237" result="shape"/>
</filter>
<filter id="filter1_d_163_237" x="113" y="11" width="27" height="29" filterUnits="userSpaceOnUse" color-interpolation-filters="sRGB">
<feFlood flood-opacity="0" result="BackgroundImageFix"/>
<feColorMatrix in="SourceAlpha" type="matrix" values="0 0 0 0 0 0 0 0 0 0 0 0 0 0 0 0 0 0 127 0" result="hardAlpha"/>
<feOffset dy="2"/>
<feComposite in2="hardAlpha" operator="out"/>
<feColorMatrix type="matrix" values="0 0 0 0 0 0 0 0 0 0 0 0 0 0 0 0 0 0 0.25 0"/>
<feBlend mode="normal" in2="BackgroundImageFix" result="effect1_dropShadow_163_237"/>
<feBlend mode="normal" in="SourceGraphic" in2="effect1_dropShadow_163_237" result="shape"/>
</filter>
<filter id="filter2_d_163_237" x="413" y="310" width="27" height="29" filterUnits="userSpaceOnUse" color-interpolation-filters="sRGB">
<feFlood flood-opacity="0" result="BackgroundImageFix"/>
<feColorMatrix in="SourceAlpha" type="matrix" values="0 0 0 0 0 0 0 0 0 0 0 0 0 0 0 0 0 0 127 0" result="hardAlpha"/>
<feOffset dy="-2"/>
<feComposite in2="hardAlpha" operator="out"/>
<feColorMatrix type="matrix" values="0 0 0 0 0 0 0 0 0 0 0 0 0 0 0 0 0 0 0.25 0"/>
<feBlend mode="normal" in2="BackgroundImageFix" result="effect1_dropShadow_163_237"/>
<feBlend mode="normal" in="SourceGraphic" in2="effect1_dropShadow_163_237" result="shape"/>
</filter>
<filter id="filter3_d_163_237" x="113" y="310" width="27" height="29" filterUnits="userSpaceOnUse" color-interpolation-filters="sRGB">
<feFlood flood-opacity="0" result="BackgroundImageFix"/>
<feColorMatrix in="SourceAlpha" type="matrix" values="0 0 0 0 0 0 0 0 0 0 0 0 0 0 0 0 0 0 127 0" result="hardAlpha"/>
<feOffset dy="-2"/>
<feComposite in2="hardAlpha" operator="out"/>
<feColorMatrix type="matrix" values="0 0 0 0 0 0 0 0 0 0 0 0 0 0 0 0 0 0 0.25 0"/>
<feBlend mode="normal" in2="BackgroundImageFix" result="effect1_dropShadow_163_237"/>
<feBlend mode="normal" in="SourceGraphic" in2="effect1_dropShadow_163_237" result="shape"/>
</filter>
<filter id="filter4_i_163_237" x="256.506" y="272.77" width="70.2939" height="15.7189" filterUnits="userSpaceOnUse" color-interpolation-filters="sRGB">
<feFlood flood-opacity="0" result="BackgroundImageFix"/>
<feBlend mode="normal" in="SourceGraphic" in2="BackgroundImageFix" result="shape"/>
<feColorMatrix in="SourceAlpha" type="matrix" values="0 0 0 0 0 0 0 0 0 0 0 0 0 0 0 0 0 0 127 0" result="hardAlpha"/>
<feOffset dy="1"/>
<feComposite in2="hardAlpha" operator="arithmetic" k2="-1" k3="1"/>
<feColorMatrix type="matrix" values="0 0 0 0 0 0 0 0 0 0 0 0 0 0 0 0 0 0 0.25 0"/>
<feBlend mode="normal" in2="shape" result="effect1_innerShadow_163_237"/>
</filter>
<filter id="filter5_i_163_237" x="256.506" y="257.051" width="70.2939" height="15.7189" filterUnits="userSpaceOnUse" color-interpolation-filters="sRGB">
<feFlood flood-opacity="0" result="BackgroundImageFix"/>
<feBlend mode="normal" in="SourceGraphic" in2="BackgroundImageFix" result="shape"/>
<feColorMatrix in="SourceAlpha" type="matrix" values="0 0 0 0 0 0 0 0 0 0 0 0 0 0 0 0 0 0 127 0" result="hardAlpha"/>
<feOffset dy="1"/>
<feComposite in2="hardAlpha" operator="arithmetic" k2="-1" k3="1"/>
<feColorMatrix type="matrix" values="0 0 0 0 0 0 0 0 0 0 0 0 0 0 0 0 0 0 0.25 0"/>
<feBlend mode="normal" in2="shape" result="effect1_innerShadow_163_237"/>
</filter>
<filter id="filter6_i_163_237" x="257.431" y="241.332" width="70.2939" height="15.7189" filterUnits="userSpaceOnUse" color-interpolation-filters="sRGB">
<feFlood flood-opacity="0" result="BackgroundImageFix"/>
<feBlend mode="normal" in="SourceGraphic" in2="BackgroundImageFix" result="shape"/>
<feColorMatrix in="SourceAlpha" type="matrix" values="0 0 0 0 0 0 0 0 0 0 0 0 0 0 0 0 0 0 127 0" result="hardAlpha"/>
<feOffset dy="1"/>
<feComposite in2="hardAlpha" operator="arithmetic" k2="-1" k3="1"/>
<feColorMatrix type="matrix" values="0 0 0 0 0 0 0 0 0 0 0 0 0 0 0 0 0 0 0.25 0"/>
<feBlend mode="normal" in2="shape" result="effect1_innerShadow_163_237"/>
</filter>
<filter id="filter7_i_163_237" x="258.356" y="225.613" width="70.2939" height="15.7189" filterUnits="userSpaceOnUse" color-interpolation-filters="sRGB">
<feFlood flood-opacity="0" result="BackgroundImageFix"/>
<feBlend mode="normal" in="SourceGraphic" in2="BackgroundImageFix" result="shape"/>
<feColorMatrix in="SourceAlpha" type="matrix" values="0 0 0 0 0 0 0 0 0 0 0 0 0 0 0 0 0 0 127 0" result="hardAlpha"/>
<feOffset dy="1"/>
<feComposite in2="hardAlpha" operator="arithmetic" k2="-1" k3="1"/>
<feColorMatrix type="matrix" values="0 0 0 0 0 0 0 0 0 0 0 0 0 0 0 0 0 0 0.25 0"/>
<feBlend mode="normal" in2="shape" result="effect1_innerShadow_163_237"/>
</filter>
<filter id="filter8_i_163_237" x="261.131" y="209.894" width="70.2939" height="15.7189" filterUnits="userSpaceOnUse" color-interpolation-filters="sRGB">
<feFlood flood-opacity="0" result="BackgroundImageFix"/>
<feBlend mode="normal" in="SourceGraphic" in2="BackgroundImageFix" result="shape"/>
<feColorMatrix in="SourceAlpha" type="matrix" values="0 0 0 0 0 0 0 0 0 0 0 0 0 0 0 0 0 0 127 0" result="hardAlpha"/>
<feOffset dy="1"/>
<feComposite in2="hardAlpha" operator="arithmetic" k2="-1" k3="1"/>
<feColorMatrix type="matrix" values="0 0 0 0 0 0 0 0 0 0 0 0 0 0 0 0 0 0 0.25 0"/>
<feBlend mode="normal" in2="shape" result="effect1_innerShadow_163_237"/>
</filter>
<filter id="filter9_i_163_237" x="172.339" y="254.277" width="70.2939" height="15.7189" filterUnits="userSpaceOnUse" color-interpolation-filters="sRGB">
<feFlood flood-opacity="0" result="BackgroundImageFix"/>
<feBlend mode="normal" in="SourceGraphic" in2="BackgroundImageFix" result="shape"/>
<feColorMatrix in="SourceAlpha" type="matrix" values="0 0 0 0 0 0 0 0 0 0 0 0 0 0 0 0 0 0 127 0" result="hardAlpha"/>
<feOffset dy="1"/>
<feComposite in2="hardAlpha" operator="arithmetic" k2="-1" k3="1"/>
<feColorMatrix type="matrix" values="0 0 0 0 0 0 0 0 0 0 0 0 0 0 0 0 0 0 0.25 0"/>
<feBlend mode="normal" in2="shape" result="effect1_innerShadow_163_237"/>
</filter>
<filter id="filter10_i_163_237" x="171.414" y="238.558" width="70.2939" height="15.7189" filterUnits="userSpaceOnUse" color-interpolation-filters="sRGB">
<feFlood flood-opacity="0" result="BackgroundImageFix"/>
<feBlend mode="normal" in="SourceGraphic" in2="BackgroundImageFix" result="shape"/>
<feColorMatrix in="SourceAlpha" type="matrix" values="0 0 0 0 0 0 0 0 0 0 0 0 0 0 0 0 0 0 127 0" result="hardAlpha"/>
<feOffset dy="1"/>
<feComposite in2="hardAlpha" operator="arithmetic" k2="-1" k3="1"/>
<feColorMatrix type="matrix" values="0 0 0 0 0 0 0 0 0 0 0 0 0 0 0 0 0 0 0.25 0"/>
<feBlend mode="normal" in2="shape" result="effect1_innerShadow_163_237"/>
</filter>
<filter id="filter11_i_163_237" x="172.339" y="222.839" width="70.2939" height="15.7189" filterUnits="userSpaceOnUse" color-interpolation-filters="sRGB">
<feFlood flood-opacity="0" result="BackgroundImageFix"/>
<feBlend mode="normal" in="SourceGraphic" in2="BackgroundImageFix" result="shape"/>
<feColorMatrix in="SourceAlpha" type="matrix" values="0 0 0 0 0 0 0 0 0 0 0 0 0 0 0 0 0 0 127 0" result="hardAlpha"/>
<feOffset dy="1"/>
<feComposite in2="hardAlpha" operator="arithmetic" k2="-1" k3="1"/>
<feColorMatrix type="matrix" values="0 0 0 0 0 0 0 0 0 0 0 0 0 0 0 0 0 0 0.25 0"/>
<feBlend mode="normal" in2="shape" result="effect1_innerShadow_163_237"/>
</filter>
<filter id="filter12_i_163_237" x="170.489" y="207.12" width="70.2939" height="15.7189" filterUnits="userSpaceOnUse" color-interpolation-filters="sRGB">
<feFlood flood-opacity="0" result="BackgroundImageFix"/>
<feBlend mode="normal" in="SourceGraphic" in2="BackgroundImageFix" result="shape"/>
<feColorMatrix in="SourceAlpha" type="matrix" values="0 0 0 0 0 0 0 0 0 0 0 0 0 0 0 0 0 0 127 0" result="hardAlpha"/>
<feOffset dy="1"/>
<feComposite in2="hardAlpha" operator="arithmetic" k2="-1" k3="1"/>
<feColorMatrix type="matrix" values="0 0 0 0 0 0 0 0 0 0 0 0 0 0 0 0 0 0 0.25 0"/>
<feBlend mode="normal" in2="shape" result="effect1_innerShadow_163_237"/>
</filter>
<filter id="filter13_i_163_237" x="172.339" y="191.401" width="70.2939" height="15.7189" filterUnits="userSpaceOnUse" color-interpolation-filters="sRGB">
<feFlood flood-opacity="0" result="BackgroundImageFix"/>
<feBlend mode="normal" in="SourceGraphic" in2="BackgroundImageFix" result="shape"/>
<feColorMatrix in="SourceAlpha" type="matrix" values="0 0 0 0 0 0 0 0 0 0 0 0 0 0 0 0 0 0 127 0" result="hardAlpha"/>
<feOffset dy="1"/>
<feComposite in2="hardAlpha" operator="arithmetic" k2="-1" k3="1"/>
<feColorMatrix type="matrix" values="0 0 0 0 0 0 0 0 0 0 0 0 0 0 0 0 0 0 0.25 0"/>
<feBlend mode="normal" in2="shape" result="effect1_innerShadow_163_237"/>
</filter>
<filter id="filter14_i_163_237" x="315.701" y="220.99" width="70.2939" height="15.7189" filterUnits="userSpaceOnUse" color-interpolation-filters="sRGB">
<feFlood flood-opacity="0" result="BackgroundImageFix"/>
<feBlend mode="normal" in="SourceGraphic" in2="BackgroundImageFix" result="shape"/>
<feColorMatrix in="SourceAlpha" type="matrix" values="0 0 0 0 0 0 0 0 0 0 0 0 0 0 0 0 0 0 127 0" result="hardAlpha"/>
<feOffset dy="1"/>
<feComposite in2="hardAlpha" operator="arithmetic" k2="-1" k3="1"/>
<feColorMatrix type="matrix" values="0 0 0 0 0 0 0 0 0 0 0 0 0 0 0 0 0 0 0.25 0"/>
<feBlend mode="normal" in2="shape" result="effect1_innerShadow_163_237"/>
</filter>
<filter id="filter15_i_163_237" x="315.701" y="236.709" width="70.2939" height="15.7189" filterUnits="userSpaceOnUse" color-interpolation-filters="sRGB">
<feFlood flood-opacity="0" result="BackgroundImageFix"/>
<feBlend mode="normal" in="SourceGraphic" in2="BackgroundImageFix" result="shape"/>
<feColorMatrix in="SourceAlpha" type="matrix" values="0 0 0 0 0 0 0 0 0 0 0 0 0 0 0 0 0 0 127 0" result="hardAlpha"/>
<feOffset dy="1"/>
<feComposite in2="hardAlpha" operator="arithmetic" k2="-1" k3="1"/>
<feColorMatrix type="matrix" values="0 0 0 0 0 0 0 0 0 0 0 0 0 0 0 0 0 0 0.25 0"/>
<feBlend mode="normal" in2="shape" result="effect1_innerShadow_163_237"/>
</filter>
<filter id="filter16_i_163_237" x="319.401" y="252.428" width="70.2939" height="15.7189" filterUnits="userSpaceOnUse" color-interpolation-filters="sRGB">
<feFlood flood-opacity="0" result="BackgroundImageFix"/>
<feBlend mode="normal" in="SourceGraphic" in2="BackgroundImageFix" result="shape"/>
<feColorMatrix in="SourceAlpha" type="matrix" values="0 0 0 0 0 0 0 0 0 0 0 0 0 0 0 0 0 0 127 0" result="hardAlpha"/>
<feOffset dy="1"/>
<feComposite in2="hardAlpha" operator="arithmetic" k2="-1" k3="1"/>
<feColorMatrix type="matrix" values="0 0 0 0 0 0 0 0 0 0 0 0 0 0 0 0 0 0 0.25 0"/>
<feBlend mode="normal" in2="shape" result="effect1_innerShadow_163_237"/>
</filter>
<filter id="filter17_i_163_237" x="315.701" y="268.147" width="70.2939" height="15.7189" filterUnits="userSpaceOnUse" color-interpolation-filters="sRGB">
<feFlood flood-opacity="0" result="BackgroundImageFix"/>
<feBlend mode="normal" in="SourceGraphic" in2="BackgroundImageFix" result="shape"/>
<feColorMatrix in="SourceAlpha" type="matrix" values="0 0 0 0 0 0 0 0 0 0 0 0 0 0 0 0 0 0 127 0" result="hardAlpha"/>
<feOffset dy="1"/>
<feComposite in2="hardAlpha" operator="arithmetic" k2="-1" k3="1"/>
<feColorMatrix type="matrix" values="0 0 0 0 0 0 0 0 0 0 0 0 0 0 0 0 0 0 0.25 0"/>
<feBlend mode="normal" in2="shape" result="effect1_innerShadow_163_237"/>
</filter>
<filter id="filter18_i_163_237" x="217.66" y="277.393" width="70.2939" height="15.7189" filterUnits="userSpaceOnUse" color-interpolation-filters="sRGB">
<feFlood flood-opacity="0" result="BackgroundImageFix"/>
<feBlend mode="normal" in="SourceGraphic" in2="BackgroundImageFix" result="shape"/>
<feColorMatrix in="SourceAlpha" type="matrix" values="0 0 0 0 0 0 0 0 0 0 0 0 0 0 0 0 0 0 127 0" result="hardAlpha"/>
<feOffset dy="1"/>
<feComposite in2="hardAlpha" operator="arithmetic" k2="-1" k3="1"/>
<feColorMatrix type="matrix" values="0 0 0 0 0 0 0 0 0 0 0 0 0 0 0 0 0 0 0.25 0"/>
<feBlend mode="normal" in2="shape" result="effect1_innerShadow_163_237"/>
</filter>
<filter id="filter19_i_163_237" x="217.66" y="261.674" width="70.2939" height="15.7189" filterUnits="userSpaceOnUse" color-interpolation-filters="sRGB">
<feFlood flood-opacity="0" result="BackgroundImageFix"/>
<feBlend mode="normal" in="SourceGraphic" in2="BackgroundImageFix" result="shape"/>
<feColorMatrix in="SourceAlpha" type="matrix" values="0 0 0 0 0 0 0 0 0 0 0 0 0 0 0 0 0 0 127 0" result="hardAlpha"/>
<feOffset dy="1"/>
<feComposite in2="hardAlpha" operator="arithmetic" k2="-1" k3="1"/>
<feColorMatrix type="matrix" values="0 0 0 0 0 0 0 0 0 0 0 0 0 0 0 0 0 0 0.25 0"/>
<feBlend mode="normal" in2="shape" result="effect1_innerShadow_163_237"/>
</filter>
<filter id="filter20_ii_163_237" x="441.49" y="79.5193" width="114.69" height="191.401" filterUnits="userSpaceOnUse" color-interpolation-filters="sRGB">
<feFlood flood-opacity="0" result="BackgroundImageFix"/>
<feBlend mode="normal" in="SourceGraphic" in2="BackgroundImageFix" result="shape"/>
<feColorMatrix in="SourceAlpha" type="matrix" values="0 0 0 0 0 0 0 0 0 0 0 0 0 0 0 0 0 0 127 0" result="hardAlpha"/>
<feOffset dy="-4"/>
<feComposite in2="hardAlpha" operator="arithmetic" k2="-1" k3="1"/>
<feColorMatrix type="matrix" values="0 0 0 0 0.2 0 0 0 0 0.2 0 0 0 0 0.2 0 0 0 1 0"/>
<feBlend mode="normal" in2="shape" result="effect1_innerShadow_163_237"/>
<feColorMatrix in="SourceAlpha" type="matrix" values="0 0 0 0 0 0 0 0 0 0 0 0 0 0 0 0 0 0 127 0" result="hardAlpha"/>
<feOffset dy="4"/>
<feComposite in2="hardAlpha" operator="arithmetic" k2="-1" k3="1"/>
<feColorMatrix type="matrix" values="0 0 0 0 0.25098 0 0 0 0 0.25098 0 0 0 0 0.25098 0 0 0 1 0"/>
<feBlend mode="normal" in2="effect1_innerShadow_163_237" result="effect2_innerShadow_163_237"/>
</filter>
<linearGradient id="paint0_linear_163_237" x1="173.423" y1="0" x2="173.423" y2="348.591" gradientUnits="userSpaceOnUse">
<stop offset="0.272408" stop-color="#272A2C"/>
<stop offset="0.272508" stop-color="#25282B"/>
</linearGradient>
<linearGradient id="paint1_linear_163_237" x1="549.281" y1="50.8555" x2="549.281" y2="303.283" gradientUnits="userSpaceOnUse">
<stop stop-color="#FFD700"/>
<stop offset="1" stop-color="#E11C1C"/>
</linearGradient>
<linearGradient id="paint2_linear_163_237" x1="619.997" y1="180.806" x2="447.962" y2="179.885" gradientUnits="userSpaceOnUse">
<stop stop-color="#FFD700"/>
<stop offset="1" stop-color="#E11C1C"/>
</linearGradient>
<linearGradient id="paint3_linear_163_237" x1="479.829" y1="81.0934" x2="598.17" y2="260.507" gradientUnits="userSpaceOnUse">
<stop stop-color="#FFD700"/>
<stop offset="1" stop-color="#E11C1C"/>
</linearGradient>
<linearGradient id="paint4_linear_163_237" x1="600.075" y1="99.2039" x2="489.132" y2="274.916" gradientUnits="userSpaceOnUse">
<stop stop-color="#FFD700"/>
<stop offset="1" stop-color="#E11C1C"/>
</linearGradient>
<linearGradient id="paint5_linear_163_237" x1="69.369" y1="0" x2="69.369" y2="270.921" gradientUnits="userSpaceOnUse">
<stop stop-color="#FFD700"/>
<stop offset="1" stop-color="#E11C1C"/>
</linearGradient>
<linearGradient id="paint6_linear_163_237" x1="491.011" y1="81.3687" x2="491.011" y2="269.071" gradientUnits="userSpaceOnUse">
<stop stop-color="#FFD700"/>
<stop offset="1" stop-color="#E11C1C"/>
</linearGradient>
</defs>
</svg>
