<svg width="450" height="450" viewBox="0 0 450 450" fill="none" xmlns="http://www.w3.org/2000/svg">
<mask id="mask0_10_245" style="mask-type:alpha" maskUnits="userSpaceOnUse" x="6" y="6" width="440" height="438">
<circle cx="225" cy="225" r="161" stroke="#FFD700" stroke-width="30"/>
<path d="M293 225C293 240.886 287.438 256.272 277.279 268.485C267.119 280.699 253.004 288.97 237.384 291.863C221.763 294.756 205.622 292.089 191.763 284.323C177.903 276.558 167.2 264.186 161.51 249.353C155.821 234.52 155.504 218.164 160.616 203.122C165.727 188.08 175.943 175.303 189.492 167.007C203.041 158.712 219.066 155.421 234.787 157.708C250.508 159.995 264.933 167.713 275.557 179.525" stroke="#FFD700" stroke-width="30"/>
<mask id="mask1_10_245" style="mask-type:alpha" maskUnits="userSpaceOnUse" x="6" y="6" width="440" height="438">
<path d="M240 21C240 12.7157 233.284 6 225 6C216.716 6 210 12.7157 210 21L240 21ZM240 167L240 21L210 21L210 167L240 167Z" fill="#FFD700"/>
<path d="M210 429C210 437.284 216.716 444 225 444C233.284 444 240 437.284 240 429L210 429ZM240 429L240 283L210 283L210 429L240 429Z" fill="#FFD700"/>
<path d="M21 210C12.7157 210 6 216.716 6 225C6 233.284 12.7157 240 21 240L21 210ZM21 240L167 240V210L21 210L21 240Z" fill="#FFD700"/>
<path d="M431 240C439.284 240 446 233.284 446 225C446 216.716 439.284 210 431 210L431 240ZM229 240L431 240L431 210L229 210L229 240Z" fill="#FFD700"/>
<path d="M385.723 93.9193C391.581 88.0614 391.581 78.5639 385.723 72.7061C379.865 66.8482 370.368 66.8482 364.51 72.7061L385.723 93.9193ZM272.723 206.919L385.723 93.9193L364.51 72.7061L251.51 185.706L272.723 206.919Z" fill="#FFD700"/>
<path d="M86.0711 72.7061C80.2132 66.8482 70.7157 66.8482 64.8579 72.7061C59 78.5639 59 88.0614 64.8579 93.9193L86.0711 72.7061ZM190.723 177.358L86.0711 72.7061L64.8579 93.9193L169.51 198.571L190.723 177.358Z" fill="#FFD700"/>
<path d="M361.581 380.223C367.439 386.081 376.936 386.081 382.794 380.223C388.652 374.365 388.652 364.868 382.794 359.01L361.581 380.223ZM256.929 275.571L361.581 380.223L382.794 359.01L278.142 254.358L256.929 275.571Z" fill="#FFD700"/>
<path d="M66.9289 359.01C61.071 364.868 61.071 374.365 66.9289 380.223C72.7868 386.081 82.2843 386.081 88.1421 380.223L66.9289 359.01ZM171.581 254.358L66.9289 359.01L88.1421 380.223L192.794 275.571L171.581 254.358Z" fill="#FFD700"/>
</mask>
<g mask="url(#mask1_10_245)">
<path d="M436.462 148.132C456.747 203.935 454.152 265.493 429.243 319.391C404.335 373.288 359.132 415.155 303.486 435.867C247.841 456.579 186.264 454.456 132.177 429.961C78.0902 405.466 35.8779 360.585 14.7405 305.1C-6.3969 249.614 -4.74579 188.023 19.334 133.75C43.4138 79.4774 87.97 36.9224 143.292 15.3605C198.613 -6.2015 260.215 -5.02238 314.671 18.6408C369.127 42.304 412.022 86.5329 434.007 141.688L274.221 205.38C269.044 192.391 258.942 181.975 246.118 176.402C233.293 170.83 218.786 170.552 205.758 175.63C192.729 180.708 182.236 190.729 176.566 203.511C170.895 216.292 170.506 230.797 175.484 243.863C180.462 256.93 190.403 267.5 203.14 273.268C215.878 279.037 230.379 279.537 243.483 274.659C256.588 269.782 267.233 259.922 273.099 247.229C278.965 234.536 279.576 220.039 274.799 206.898L436.462 148.132Z" fill="#D9D9D9"/>
<rect x="226" y="209" width="104" height="33" fill="#D9D9D9"/>
</g>
</mask>
<g mask="url(#mask0_10_245)">
<rect x="-10" y="-10" width="471" height="471" fill="url(#paint0_linear_10_245)"/>
</g>
<defs>
<linearGradient id="paint0_linear_10_245" x1="225.5" y1="-10" x2="225.5" y2="461" gradientUnits="userSpaceOnUse">
<stop stop-color="#FFD700"/>
<stop offset="1" stop-color="#E11C1C"/>
</linearGradient>
</defs>
</svg>
