<svg width="450" height="450" viewBox="0 0 450 450" fill="none" xmlns="http://www.w3.org/2000/svg">
<mask id="mask0_6_90" style="mask-type:alpha" maskUnits="userSpaceOnUse" x="11" y="11" width="430" height="428">
<circle cx="225" cy="225" r="166" stroke="#FFD700" stroke-width="20"/>
<path d="M293 225C293 233.93 291.241 242.772 287.824 251.022C284.406 259.273 279.398 266.769 273.083 273.083C266.769 279.398 259.273 284.406 251.022 287.824C242.772 291.241 233.93 293 225 293C216.07 293 207.228 291.241 198.978 287.824C190.727 284.406 183.231 279.398 176.917 273.083C170.602 266.769 165.594 259.273 162.176 251.022C158.759 242.772 157 233.93 157 225C157 216.07 158.759 207.228 162.176 198.978C165.594 190.727 170.602 183.231 176.917 176.917C183.231 170.602 190.727 165.594 198.978 162.176C207.228 158.759 216.07 157 225 157C233.93 157 242.772 158.759 251.022 162.176C259.273 165.594 266.769 170.602 273.083 176.917C279.398 183.231 284.406 190.727 287.824 198.978C291.241 207.228 293 216.07 293 225L293 225Z" stroke="#FFD700" stroke-width="20"/>
<path d="M235 21C235 15.4772 230.523 11 225 11C219.477 11 215 15.4772 215 21L235 21ZM235 167L235 21L215 21L215 167L235 167Z" fill="#FFD700"/>
<path d="M215 429C215 434.523 219.477 439 225 439C230.523 439 235 434.523 235 429L215 429ZM235 429L235 283L215 283L215 429L235 429Z" fill="#FFD700"/>
<path d="M21 215C15.4772 215 11 219.477 11 225C11 230.523 15.4772 235 21 235V215ZM21 235L167 235V215L21 215V235Z" fill="#FFD700"/>
<path d="M431 235C436.523 235 441 230.523 441 225C441 219.477 436.523 215 431 215L431 235ZM285 235L431 235L431 215L285 215L285 235Z" fill="#FFD700"/>
<path d="M382.187 90.3837C386.093 86.4785 386.093 80.1469 382.187 76.2416C378.282 72.3364 371.95 72.3364 368.045 76.2416L382.187 90.3837ZM277.536 195.036L382.187 90.3837L368.045 76.2416L263.393 180.893L277.536 195.036Z" fill="#FFD700"/>
<path d="M82.5355 76.2416C78.6303 72.3364 72.2986 72.3364 68.3934 76.2416C64.4882 80.1469 64.4882 86.4785 68.3934 90.3837L82.5355 76.2416ZM187.187 180.893L82.5355 76.2416L68.3934 90.3837L173.045 195.036L187.187 180.893Z" fill="#FFD700"/>
<path d="M365.116 376.687C369.021 380.593 375.353 380.593 379.258 376.687C383.164 372.782 383.164 366.45 379.258 362.545L365.116 376.687ZM260.464 272.036L365.116 376.687L379.258 362.545L274.607 257.893L260.464 272.036Z" fill="#FFD700"/>
<path d="M70.4644 362.545C66.5592 366.45 66.5592 372.782 70.4644 376.687C74.3697 380.593 80.7013 380.593 84.6066 376.687L70.4644 362.545ZM175.116 257.893L70.4644 362.545L84.6066 376.687L189.258 272.036L175.116 257.893Z" fill="#FFD700"/>
</mask>
<g mask="url(#mask0_6_90)">
<rect x="-10" y="-10" width="471" height="471" fill="url(#paint0_linear_6_90)"/>
</g>
<defs>
<linearGradient id="paint0_linear_6_90" x1="225.5" y1="-10" x2="225.5" y2="461" gradientUnits="userSpaceOnUse">
<stop stop-color="#FFD700"/>
<stop offset="1" stop-color="#E11C1C"/>
</linearGradient>
</defs>
</svg>
